<svg xmlns="http://www.w3.org/2000/svg" xmlns:xlink="http://www.w3.org/1999/xlink" viewBox="0 0 24 24" id="gallery-add"><defs><linearGradient id="a" x1="2.06" x2="21.5" y1="17.499" y2="17.499" gradientUnits="userSpaceOnUse"><stop offset="0" stop-color="#16b0e2"></stop><stop offset="1" stop-color="#6e5af0"></stop></linearGradient><linearGradient id="b" x1="1.5" y1="11.015" y2="11.015" xlink:href="#a"></linearGradient><linearGradient id="c" x1="6.125" x2="10.875" y1="8.5" y2="8.5" xlink:href="#a"></linearGradient><linearGradient id="d" x1="15.5" x2="22.5" y1="5" y2="5" xlink:href="#a"></linearGradient></defs><g data-name="1"><path fill="url(#a)" d="M21.5,14.4v2.29c0,3.64-2.17,5.81-5.81,5.81H7.31c-2.55,0-4.39-1.07-5.25-2.97l.11-.08,4.92-3.3a2.221,2.221,0,0,1,2.64.14l.34.28a2.229,2.229,0,0,0,2.82,0L17.05,13a2.229,2.229,0,0,1,2.82,0Z"></path><path fill="url(#b)" d="M21.5,8.277c0,.011,0,.021,0,.033V14.4L19.87,13a2.229,2.229,0,0,0-2.82,0l-4.16,3.57a2.229,2.229,0,0,1-2.82,0l-.34-.28a2.221,2.221,0,0,0-2.64-.14l-4.92,3.3-.11.08a6.723,6.723,0,0,1-.56-2.84V8.31C1.5,4.67,3.67,2.5,7.31,2.5h8.38c.012,0,.022,0,.033,0A2.314,2.314,0,0,0,15.5,3.53V6.47A1.866,1.866,0,0,0,17.53,8.5h2.94A2.314,2.314,0,0,0,21.5,8.277Z" opacity=".4"></path><path fill="url(#c)" d="M10.875,8.5A2.375,2.375,0,1,1,8.5,6.125,2.377,2.377,0,0,1,10.875,8.5Z"></path><path fill="url(#d)" d="M20.47,1.5H17.53A1.866,1.866,0,0,0,15.5,3.53V6.47A1.866,1.866,0,0,0,17.53,8.5h2.94A1.866,1.866,0,0,0,22.5,6.47V3.53A1.866,1.866,0,0,0,20.47,1.5Zm.94,3.93a.647.647,0,0,1-.41.18H19.59L19.6,7a.632.632,0,0,1-.19.43A.59.59,0,0,1,19,7.6a.6.6,0,0,1-.6-.6V5.6L17,5.61A.61.61,0,0,1,16.4,5a.6.6,0,0,1,.6-.6l1.4.01V3.01a.6.6,0,1,1,1.2,0L19.59,4.4H21a.6.6,0,0,1,.6.6A.681.681,0,0,1,21.41,5.43Z"></path></g></svg>